<?xml version="1.0" encoding="utf-8"?>
<!DOCTYPE svg PUBLIC "-//W3C//DTD SVG 1.1//EN" "http://www.w3.org/Graphics/SVG/1.1/DTD/svg11.dtd">
<svg version="1.1" xmlns="http://www.w3.org/2000/svg" xmlns:xlink="http://www.w3.org/1999/xlink" x="0px" y="0px" viewBox="0 0 491 491" style="enable-background:new 0 0 491 491;" xml:space="preserve">
<style type="text/css">
<![CDATA[
	.st0{fill:url(#SVGID_1_);}
	.st1{opacity:0.3;}
	.st2{fill:#FFFFFF;}
	.st3{fill:#407BE6;}
	.st4{fill:#4285F4;}
]]>
</style>
		<path class="st4" d="M245.5,374C174.645,374,117,316.355,117,245.5c0-70.855,57.645-128.5,128.5-128.5
			c70.855,0,128.5,57.645,128.5,128.5C374,316.355,316.355,374,245.5,374z"/>
		<path class="st2" d="M245.5,126c31.92,0,61.929,12.43,84.499,35.001C352.57,183.571,365,213.581,365,245.5
			c0,31.92-12.43,61.929-35.001,84.499C307.429,352.57,277.42,365,245.5,365s-61.929-12.43-84.5-35.001
			c-22.57-22.57-35-52.579-35-84.499c0-31.919,12.43-61.929,35-84.499C183.571,138.43,213.58,126,245.5,126 M245.5,108
			C169.561,108,108,169.561,108,245.5c0,75.939,61.561,137.5,137.5,137.5S383,321.439,383,245.5C383,169.561,321.439,108,245.5,108
			L245.5,108z"/>
		<path class="st3" d="M364.973,245.5c0.009,56.574-43.224,118.074-119.473,119.493c-43.576,0-69.409-20.918-86.715-37.286
			C229.91,220.41,279.41,202.91,346.327,181.54C346.91,181.91,365.436,208.91,364.973,245.5z"/>
		<radialGradient id="SVGID_1_" cx="245.5" cy="245.5" r="245.5" gradientUnits="userSpaceOnUse">
			<stop  offset="0" style="stop-color:#2AA3FF"/>
			<stop  offset="0.3864" style="stop-color:#2CA4FF;stop-opacity:0.6136"/>
			<stop  offset="0.5255" style="stop-color:#33A7FF;stop-opacity:0.4745"/>
			<stop  offset="0.6248" style="stop-color:#3EACFF;stop-opacity:0.3752"/>
			<stop  offset="0.705" style="stop-color:#4FB3FF;stop-opacity:0.295"/>
			<stop  offset="0.7737" style="stop-color:#65BDFF;stop-opacity:0.2263"/>
			<stop  offset="0.8345" style="stop-color:#81C8FF;stop-opacity:0.1655"/>
			<stop  offset="0.8896" style="stop-color:#A1D6FF;stop-opacity:0.1104"/>
			<stop  offset="0.9402" style="stop-color:#C7E7FF;stop-opacity:0.0598"/>
			<stop  offset="0.9853" style="stop-color:#F0F8FF;stop-opacity:0.0147"/>
			<stop  offset="1" style="stop-color:#FFFFFF;stop-opacity:0"/>
		</radialGradient>
		<path class="st0" d="M245.5,108c75.939,0,137.5,61.561,137.5,137.5c0,75.939-61.561,137.5-137.5,137.5S108,321.439,108,245.5
			C108,169.561,169.561,108,245.5,108 M245.5,0c-33.095,0-65.257,6.506-95.593,19.337C120.66,31.708,94.417,49.394,71.905,71.906
			c-22.511,22.511-40.197,48.755-52.568,78.001C6.506,180.243,0,212.405,0,245.5s6.506,65.257,19.337,95.593
			c12.371,29.247,30.057,55.49,52.568,78.002c22.512,22.512,48.755,40.198,78.002,52.568C180.243,484.494,212.405,491,245.5,491
			s65.257-6.506,95.593-19.337c29.247-12.37,55.49-30.057,78.002-52.568s40.198-48.755,52.568-78.002
			C484.494,310.757,491,278.595,491,245.5s-6.506-65.257-19.337-95.593c-12.37-29.247-30.057-55.49-52.568-78.001
			c-22.511-22.512-48.755-40.198-78.002-52.569C310.757,6.506,278.595,0,245.5,0L245.5,0z"/>
</svg>
